<svg width="41" height="40" viewBox="0 0 41 40" fill="none" xmlns="http://www.w3.org/2000/svg">
<path fill-rule="evenodd" clip-rule="evenodd" d="M27.5 14.25C27.5 13.0074 26.4926 12 25.25 12H19.75C18.5074 12 17.5 13.0074 17.5 14.25V16.25C17.5 16.6642 17.8358 17 18.25 17C18.6642 17 19 16.6642 19 16.25V14.25C19 13.8358 19.3358 13.5 19.75 13.5H25.25C25.6642 13.5 26 13.8358 26 14.25V25.75C26 26.1642 25.6642 26.5 25.25 26.5H19.75C19.3358 26.5 19 26.1642 19 25.75V23.75C19 23.3358 18.6642 23 18.25 23C17.8358 23 17.5 23.3358 17.5 23.75V25.75C17.5 26.9926 18.5074 28 19.75 28H25.25C26.4926 28 27.5 26.9926 27.5 25.75V14.25Z" fill="#0F172A"/>
<path fill-rule="evenodd" clip-rule="evenodd" d="M24.5 20C24.5 19.5858 24.1642 19.25 23.75 19.25H14.2045L15.2517 18.3075C15.5596 18.0304 15.5846 17.5562 15.3075 17.2483C15.0304 16.9404 14.5562 16.9154 14.2483 17.1925L11.7483 19.4425C11.5902 19.5848 11.5 19.7874 11.5 20C11.5 20.2126 11.5902 20.4152 11.7483 20.5575L14.2483 22.8075C14.5562 23.0846 15.0304 23.0596 15.3075 22.7517C15.5846 22.4438 15.5596 21.9696 15.2517 21.6925L14.2045 20.75H23.75C24.1642 20.75 24.5 20.4142 24.5 20Z" fill="#0F172A"/>
</svg>
